<svg xmlns="http://www.w3.org/2000/svg" viewBox="0 0 1080 1080"><defs><style>.cls-1{isolation:isolate;}.cls-2,.cls-7{fill:#fff;}.cls-3{fill:#a6adc5;}.cls-4{fill:#7373ac;}.cls-5,.cls-8{fill:#595378;}.cls-5,.cls-7{mix-blend-mode:overlay;}.cls-5{opacity:0.4;}.cls-6{opacity:0.75;}.cls-7{opacity:0.47;}</style></defs><g class="cls-1"><g id="platinum"><path class="cls-2" d="M197.24,524.57l28.43,16.18"/><path class="cls-3" d="M161.76,583.18H915.05S976.86,328.76,958.81,294s-143.09-88.69-159.65-183.3c0,0-261.35-47.3-515.6-10.64,0,0-11.82,112.34-157.28,189.21C126.28,289.24,112.09,444.3,161.76,583.18Z"/><path class="cls-3" d="M300.12,809.92H777.87s-173,169-237.87,169-239.88-169-239.88-169"/><path class="cls-4" d="M229.59,583.18h629s53-223.08,37.52-253.59S773.44,251.83,759.24,168.88c0,0-224.11-41.48-442.14-9.34,0,0-10.14,98.51-134.88,165.91C182.22,325.45,187,461.41,229.59,583.18Z"/><path class="cls-5" d="M536.63,583.11h318s53-223.08,37.52-253.58-122.7-77.77-136.9-160.72c0,0-93.6-17.32-218.66-20.9"/><path class="cls-4" d="M373.44,809.92H701S582.38,920,537.91,920s-164.47-110-164.47-110"/><g class="cls-6"><polygon class="cls-7" points="864.65 528.91 633.01 583.11 407.44 583.18 886.44 419.16 864.65 528.91"/></g><polyline class="cls-5" points="536.61 919.96 536.61 809.93 685.64 809.93"/><g class="cls-6"><polygon class="cls-7" points="633.13 809.92 447.93 873.35 436.77 858.47 584.5 809.92 633.13 809.92"/></g><g class="cls-6"><polygon class="cls-7" points="812.36 248.77 188.84 462.05 176.73 352.3 747.25 152.64 812.36 248.77"/></g><g class="cls-6"><polygon class="cls-7" points="903.48 355.18 224.9 570.5 210.46 511.34 889.64 312.65 903.48 355.18"/></g><path class="cls-8" d="M903.8,314.82a311,311,0,0,1-81.36-65.45,308.41,308.41,0,0,1-56.59-95L763.1,147l-7.81-.83a2038.45,2038.45,0,0,0-433,0l-7.82.84-2.73,7.37A305.31,305.31,0,0,1,255.42,249a314.09,314.09,0,0,1-81.3,65.78l-6.69,3.76.22,7.69a903.8,903.8,0,0,0,14,133.83c6.56,35.55,22.37,86.34,36,123.08h27.16c-13.75-35.54-31.34-90.67-38.17-127.65a878.21,878.21,0,0,1-13.3-122.45,340,340,0,0,0,81.2-67.26,330.87,330.87,0,0,0,58.17-95.13,2012.15,2012.15,0,0,1,412.19,0,334,334,0,0,0,58.46,95.5,336.26,336.26,0,0,0,81.31,67,876.17,876.17,0,0,1-13.26,122.19c-6.88,37.3-24.6,92.36-38.37,127.85h27.16c13.69-36.7,29.61-87.42,36.22-123.28a900.75,900.75,0,0,0,13.91-133.61l.23-7.72Z"/><path class="cls-8" d="M673.78,809.92c-40.37,35.87-86.29,68.54-137.16,97.45-50.91-28.92-96.87-61.62-137.19-97.45H362c48.08,46.16,104.59,87.54,168.41,123.14l6.2,3.45,6.19-3.45c63.76-35.58,120.22-76.9,168.4-123.14Z"/><path class="cls-4" d="M757.69,809.92l-4.86,5.26c-54.27,55.89-120.69,106.11-198.05,148.64l-15.39,8.51L524,963.82c-77.35-42.53-143.77-92.75-198-148.64l-4.86-5.26H274.93q12.75,15.18,26.73,29.16c56.7,58.72,126,111,206.14,155.12l32,17.82,32-17.82C652,949.65,721.64,897.8,777.94,839.08c9.31-9.32,17.82-19.44,26.73-29.16Z"/><path class="cls-4" d="M119.41,469.37a706.55,706.55,0,0,0,30.78,113.81h37.26a662.92,662.92,0,0,1-34-119.88,928.28,928.28,0,0,1-14.58-145V298.87l17-9.32a284.36,284.36,0,0,0,78.16-62,277.1,277.1,0,0,0,53.06-91.53L294,117.43l19.85-2a2054.77,2054.77,0,0,1,452.38,0l19.85,2,6.48,18.63a279.15,279.15,0,0,0,53.05,91.53,283.55,283.55,0,0,0,78.57,62l17,9.32v19.44a926.83,926.83,0,0,1-14.58,145,661.08,661.08,0,0,1-34,119.88h37.26a706.55,706.55,0,0,0,30.78-113.81,961.13,961.13,0,0,0,15-150.25l1.21-40.5-36-19.44a249.61,249.61,0,0,1-69.26-54.27,243.88,243.88,0,0,1-46.57-80.6L811.15,85l-41.31-4.46a2108.73,2108.73,0,0,0-460.08,0L268.45,85l-14.18,39.28A243.26,243.26,0,0,1,208.1,204.5a249.42,249.42,0,0,1-69.25,54.68l-35.64,19.44,1.21,40.5A966,966,0,0,0,119.41,469.37Z"/><polygon class="cls-2" points="281.74 227.84 293.48 271.14 336.77 282.88 293.48 294.62 281.74 337.92 269.99 294.62 226.7 282.88 269.99 271.14 281.74 227.84"/><polygon class="cls-2" points="809.42 420.11 817.47 449.79 847.15 457.84 817.47 465.89 809.42 495.57 801.37 465.89 771.69 457.84 801.37 449.79 809.42 420.11"/><rect class="cls-2" x="320.62" y="314.97" width="24.32" height="24.32"/><rect class="cls-2" x="848.66" y="387.05" width="40.76" height="40.76"/><rect class="cls-2" x="218.62" y="344.08" width="35" height="35"/><rect class="cls-2" x="800.44" y="349.97" width="24.32" height="24.32"/><path class="cls-8" d="M288.66,680.45q0,14.17-8.35,21.88T256.58,710h-6.41v28H227.33v-84.5h29.25q16,0,24,7T288.66,680.45Zm-38.49,11h4.16a11.33,11.33,0,0,0,8.17-2.9,10.48,10.48,0,0,0,3-8q0-8.55-9.48-8.55h-5.89Z"/><path class="cls-8" d="M302.12,738.08v-84.5H325v66.06H357.5v18.44Z"/><path class="cls-8" d="M422.87,738.08l-4.16-15.84H391.25L387,738.08H361.89l27.57-84.85h30.46l27.92,84.85ZM414,703.51l-3.65-13.87c-.84-3.08-1.88-7.06-3.09-12s-2-8.39-2.39-10.51q-.52,2.94-2.06,9.71T396,703.51Z"/><path class="cls-8" d="M494.25,738.08H471.42V672.25H450.78V653.58h64.05v18.67H494.25Z"/><path class="cls-8" d="M526.91,738.08v-84.5h22.94v84.5Z"/><path class="cls-8" d="M648.57,738.08H618.63l-30.86-59.53h-.52q1.11,14,1.1,21.44v38.09H568.12v-84.5h29.82l30.75,58.72H629q-.81-12.78-.81-20.52v-38.2h20.34Z"/><path class="cls-8" d="M738.69,653.58v50.86q0,16.59-9.4,25.69t-27.08,9.1q-17.28,0-26.55-8.84T666.38,705V653.58h23v49.59q0,9,3.35,13t9.88,4c4.66,0,8.05-1.33,10.14-4s3.15-7.06,3.15-13.15V653.58Z"/><path class="cls-8" d="M793.25,738.08,776,677.21h-.51q1.21,15.56,1.21,24.17v36.7H756.43v-84.5h30.4l17.63,60h.47l17.27-60h30.47v84.5h-21V701c0-1.92,0-4.07.09-6.42s.32-8.1.78-17.27H832l-17,60.74Z"/></g></g></svg>