<svg xmlns="http://www.w3.org/2000/svg" viewBox="0 0 1080 1080"><defs><style>.cls-1{isolation:isolate;}.cls-2{fill:#b9d4ea;}.cls-3{fill:#469fd8;}.cls-4,.cls-7{fill:#3f738d;}.cls-4,.cls-6{mix-blend-mode:overlay;}.cls-5{opacity:0.75;}.cls-6,.cls-8{fill:#fff;}.cls-6{opacity:0.47;}.cls-9{fill:#4197cb;}</style></defs><g class="cls-1"><g id="diamond"><path class="cls-2" d="M300.32,809.92H778.08s-173,169-237.88,169-239.88-169-239.88-169"/><path class="cls-3" d="M373.64,809.92H701.21S582.59,920,538.11,920s-164.47-110-164.47-110"/><polyline class="cls-4" points="536.81 919.95 536.81 809.92 685.84 809.92"/><g class="cls-5"><polygon class="cls-6" points="633.33 809.92 448.14 873.35 436.97 858.47 584.7 809.92 633.33 809.92"/></g><path class="cls-7" d="M674,809.92c-40.38,35.87-86.3,68.54-137.17,97.45-50.91-28.92-96.86-61.62-137.19-97.45H362.21c48.09,46.16,104.6,87.54,168.42,123.14l6.19,3.45,6.19-3.45c63.77-35.58,120.22-76.9,168.4-123.14Z"/><path class="cls-3" d="M757.89,809.92,753,815.18c-54.27,55.89-120.69,106.11-198,148.64l-15.4,8.51-15.39-8.51c-77.35-42.53-143.77-92.75-198-148.64l-4.86-5.26H275.13q12.75,15.18,26.73,29.16c56.7,58.72,126,111,206.14,155.12L540,1012l32-17.82c80.19-44.55,149.85-96.4,206.14-155.12,9.32-9.32,17.82-19.44,26.73-29.16Z"/><path class="cls-8" d="M197.24,524.57l28.43,16.18"/><path class="cls-2" d="M161.76,583.18H915.05S976.86,328.76,958.81,294s-143.09-88.69-159.65-183.3c0,0-261.35-47.3-515.6-10.64,0,0-11.82,112.34-157.28,189.21C126.28,289.24,112.09,444.3,161.76,583.18Z"/><path class="cls-3" d="M229.59,583.18h629s53-223.08,37.52-253.59S773.44,251.83,759.24,168.88c0,0-224.11-41.48-442.14-9.34,0,0-10.14,98.51-134.88,165.91C182.22,325.45,187,461.41,229.59,583.18Z"/><path class="cls-4" d="M536.63,583.11h318s53-223.08,37.52-253.58-122.7-77.77-136.9-160.72c0,0-93.6-17.32-218.66-20.9"/><g class="cls-5"><polygon class="cls-6" points="864.65 528.91 633.01 583.11 407.44 583.18 886.44 419.16 864.65 528.91"/></g><g class="cls-5"><polygon class="cls-6" points="812.36 248.77 188.84 462.05 176.73 352.3 747.25 152.64 812.36 248.77"/></g><g class="cls-5"><polygon class="cls-6" points="903.48 355.18 224.9 570.5 210.46 511.34 889.64 312.65 903.48 355.18"/></g><path class="cls-7" d="M903.8,314.82a311,311,0,0,1-81.36-65.45,308.41,308.41,0,0,1-56.59-95L763.1,147l-7.81-.83a2038.45,2038.45,0,0,0-433,0l-7.82.84-2.73,7.37A305.31,305.31,0,0,1,255.42,249a314.09,314.09,0,0,1-81.3,65.78l-6.69,3.76.22,7.69a903.8,903.8,0,0,0,14,133.83c6.56,35.55,22.37,86.34,36,123.08h27.16c-13.75-35.54-31.34-90.67-38.17-127.65a878.21,878.21,0,0,1-13.3-122.45,340,340,0,0,0,81.2-67.26,330.87,330.87,0,0,0,58.17-95.13,2012.15,2012.15,0,0,1,412.19,0,334,334,0,0,0,58.46,95.5,336.26,336.26,0,0,0,81.31,67,876.17,876.17,0,0,1-13.26,122.19c-6.88,37.3-24.6,92.36-38.37,127.85h27.16c13.69-36.7,29.61-87.42,36.22-123.28a900.75,900.75,0,0,0,13.91-133.61l.23-7.72Z"/><path class="cls-3" d="M119.41,469.37a706.55,706.55,0,0,0,30.78,113.81h37.26a662.92,662.92,0,0,1-34-119.88,928.28,928.28,0,0,1-14.58-145V298.87l17-9.32a284.36,284.36,0,0,0,78.16-62,277.1,277.1,0,0,0,53.06-91.53L294,117.43l19.85-2a2054.77,2054.77,0,0,1,452.38,0l19.85,2,6.48,18.63a279.15,279.15,0,0,0,53.05,91.53,283.55,283.55,0,0,0,78.57,62l17,9.32v19.44a926.83,926.83,0,0,1-14.58,145,661.08,661.08,0,0,1-34,119.88h37.26a706.55,706.55,0,0,0,30.78-113.81,961.13,961.13,0,0,0,15-150.25l1.21-40.5-36-19.44a249.61,249.61,0,0,1-69.26-54.27,243.88,243.88,0,0,1-46.57-80.6L811.15,85l-41.31-4.46a2108.73,2108.73,0,0,0-460.08,0L268.45,85l-14.18,39.28A243.26,243.26,0,0,1,208.1,204.5a249.42,249.42,0,0,1-69.25,54.68l-35.64,19.44,1.21,40.5A966,966,0,0,0,119.41,469.37Z"/><polygon class="cls-8" points="281.74 227.84 293.48 271.14 336.77 282.88 293.48 294.62 281.74 337.92 269.99 294.62 226.7 282.88 269.99 271.14 281.74 227.84"/><polygon class="cls-8" points="809.42 420.11 817.47 449.79 847.15 457.84 817.47 465.89 809.42 495.57 801.37 465.89 771.69 457.84 801.37 449.79 809.42 420.11"/><rect class="cls-8" x="320.62" y="314.97" width="24.32" height="24.32"/><rect class="cls-8" x="848.66" y="387.05" width="40.76" height="40.76"/><rect class="cls-8" x="218.62" y="344.08" width="35" height="35"/><rect class="cls-8" x="800.44" y="349.97" width="24.32" height="24.32"/><path class="cls-9" d="M282.37,694.28q0,24.22-13.34,37.34t-37.51,13.11H200.2v-96.8h33.51q23.29,0,36,11.92T282.37,694.28Zm-27.15.93q0-13.32-5.26-19.74t-16-6.42h-7.61v54.23h5.82q11.92,0,17.48-6.92T255.22,695.21Z"/><path class="cls-9" d="M299.72,744.73v-96.8H326v96.8Z"/><path class="cls-9" d="M406.32,744.73l-4.77-18.14H370.1l-4.9,18.14H336.47l31.58-97.2h34.89l32,97.2Zm-10.2-39.59L392,689.25q-1.45-5.31-3.54-13.71t-2.75-12q-.6,3.38-2.35,11.12t-7.78,30.53Z"/><path class="cls-9" d="M487.56,744.73,467.76,675h-.59q1.38,17.82,1.39,27.68v42H445.38v-96.8h34.83l20.2,68.73h.53l19.79-68.73h34.9v96.8h-24V702.29q0-3.31.1-7.35t.89-19.8H532l-19.53,69.59Z"/><path class="cls-9" d="M667.06,696.2q0,24.43-12,37.14T620,746.06q-22.77,0-34.92-12.78t-12.15-37.21q0-24.18,12.08-36.92t35.13-12.74q23.1,0,35,12.64T667.06,696.2Zm-66.61,0q0,28.06,19.53,28.07,9.93,0,14.74-6.82t4.8-21.25q0-14.51-4.87-21.42t-14.53-6.92Q600.45,667.86,600.45,696.2Z"/><path class="cls-9" d="M776.71,744.73h-34.3l-35.36-68.2h-.59q1.24,16.1,1.25,24.57v43.63H684.54v-96.8H718.7l35.23,67.27h.4q-.93-14.64-.93-23.5V647.93h23.31Z"/><path class="cls-9" d="M879.8,694.28q0,24.22-13.34,37.34T829,744.73H797.63v-96.8h33.5q23.31,0,36,11.92T879.8,694.28Zm-27.15.93q0-13.32-5.26-19.74t-16-6.42h-7.62v54.23h5.83q11.91,0,17.48-6.92T852.65,695.21Z"/></g></g></svg>